# xmcd
#
# Track frame offsets:
#	150
#	24015
#	46440
#	66260
#	87072
#	103733
#	122724
#	139697
#	162374
#	178247
#	209350
#	223241
#	237336
#	258813
#	283531
#	299855
#	327279
#
# Disc length: 4716 seconds
# Revision: 0
# Processed by: cddbd v1.5.2PL0 Copyright (c) Steve Scherf et al.
# Submitted via: dBpowerAMP V12.0
#
DISCID=06126a11
DTITLE=Various Artist - 20 Years of Nuclear Blast
DYEAR=2008
DGENRE=Metal
TTITLE0=Dimmu Borgir - Progenies of the Great Apocalypse
TTITLE1=Immortal - One by One
TTITLE2=Hypocrisy - Scrutinized
TTITLE3=Gorefest - The Glorious Dead
TTITLE4=Kataklysm - Manipulator of Souls
TTITLE5=Benediction - I Bow to None
TTITLE6=Pungent Stench - Shrunken and Mumified Bitch 
TTITLE7=Belphegor - Sanctus Perversum
TTITLE8=Nile - The Language of the Shadows
TTITLE9=Death - Scavenger of Human Sorrow
TTITLE10=Malevolent Creation - Assassin Squad
TTITLE11=Destruction - The Butcher Strikes Back
TTITLE12=Dew-Scented - Cities of the Dead
TTITLE13=Graveworm - Legions Unleashed
TTITLE14=Exodus - Riot Act
TTITLE15=Death Angel - The Devil Incarnate
TTITLE16=I - Warriors
EXTD=
EXTT0=
EXTT1=
EXTT2=
EXTT3=
EXTT4=
EXTT5=
EXTT6=
EXTT7=
EXTT8=
EXTT9=
EXTT10=
EXTT11=
EXTT12=
EXTT13=
EXTT14=
EXTT15=
EXTT16=
PLAYORDER=
